<?xml version="1.0" encoding="UTF-8" standalone="no"?>
<!-- Created with Inkscape (http://www.inkscape.org/) -->

<svg
   xmlns:dc="http://purl.org/dc/elements/1.1/"
   xmlns:cc="http://creativecommons.org/ns#"
   xmlns:rdf="http://www.w3.org/1999/02/22-rdf-syntax-ns#"
   xmlns:svg="http://www.w3.org/2000/svg"
   xmlns="http://www.w3.org/2000/svg"
   xmlns:sodipodi="http://sodipodi.sourceforge.net/DTD/sodipodi-0.dtd"
   xmlns:inkscape="http://www.inkscape.org/namespaces/inkscape"
   width="844"
   height="250"
   id="svg11734"
   version="1.1"
   inkscape:version="0.48.5 r10040"
   sodipodi:docname="logo-nucamp-lockup.svg">
  <defs
     id="defs11736" />
  <sodipodi:namedview
     id="base"
     pagecolor="#ffffff"
     bordercolor="#666666"
     borderopacity="1.0"
     inkscape:pageopacity="0.0"
     inkscape:pageshadow="2"
     inkscape:zoom="0.49497475"
     inkscape:cx="206.32934"
     inkscape:cy="136.5133"
     inkscape:document-units="px"
     inkscape:current-layer="layer1"
     showgrid="false"
     inkscape:showpageshadow="false"
     inkscape:window-width="2277"
     inkscape:window-height="1361"
     inkscape:window-x="1680"
     inkscape:window-y="0"
     inkscape:window-maximized="0" />
  <metadata
     id="metadata11739">
    <rdf:RDF>
      <cc:Work
         rdf:about="">
        <dc:format>image/svg+xml</dc:format>
        <dc:type
           rdf:resource="http://purl.org/dc/dcmitype/StillImage" />
        <dc:title></dc:title>
      </cc:Work>
    </rdf:RDF>
  </metadata>
  <g
     inkscape:label="Layer 1"
     inkscape:groupmode="layer"
     id="layer1"
     transform="translate(0,-802.36218)">
    <g
       id="g5345"
       transform="translate(150.8764,464.92905)">
      <g
         id="g4626"
         transform="translate(-2072.9287,-2547.2006)">
        <path
           sodipodi:type="arc"
           style="fill:#ffffff;fill-opacity:0;stroke:none"
           id="path10516-3"
           sodipodi:cx="1583.5714"
           sodipodi:cy="1395.2194"
           sodipodi:rx="165.71428"
           sodipodi:ry="165.71428"
           d="m 1749.2857,1395.2194 c 0,91.5214 -74.1928,165.7142 -165.7143,165.7142 -91.5215,0 -165.7143,-74.1928 -165.7143,-165.7142 0,-91.5215 74.1928,-165.7143 165.7143,-165.7143 91.5215,0 165.7143,74.1928 165.7143,165.7143 z"
           transform="matrix(0.75431037,0,0,0.75431037,852.54803,1957.2053)" />
        <path
           transform="matrix(0.75431037,0,0,0.75431037,852.54803,1957.2053)"
           d="m 1749.2857,1395.2194 c 0,91.5214 -74.1928,165.7142 -165.7143,165.7142 -91.5215,0 -165.7143,-74.1928 -165.7143,-165.7142 0,-91.5215 74.1928,-165.7143 165.7143,-165.7143 91.5215,0 165.7143,74.1928 165.7143,165.7143 z"
           sodipodi:ry="165.71428"
           sodipodi:rx="165.71428"
           sodipodi:cy="1395.2194"
           sodipodi:cx="1583.5714"
           id="path6252-1-8-5-6"
           style="fill:#ffffff;fill-opacity:0;stroke:none"
           sodipodi:type="arc" />
        <path
           style="fill:#0096db;fill-opacity:1;stroke:none"
           d="m 2047.0522,2884.6337 c -69.0337,0 -124.9999,55.9663 -124.9999,125 0,69.0337 55.9662,125 124.9999,125 38.5218,0 72.96,-17.4345 95.8891,-44.8332 -21.0767,21.9672 -50.7141,35.6402 -83.5612,35.6402 -63.9602,0 -115.8305,-51.8468 -115.8305,-115.807 0,-63.9602 51.8703,-115.807 115.8305,-115.807 32.8231,0 62.4403,13.6541 83.5141,35.593 -22.9292,-27.3671 -57.346,-44.786 -95.842,-44.786 z"
           id="path6252-2-2-1"
           inkscape:connector-curvature="0" />
        <path
           id="path6258-4-7-8"
           d="m 2059.3507,2900.1563 c 60.461,0 109.4773,49.0163 109.4773,109.4774 0,60.4611 -49.0163,109.4774 -109.4773,109.4774 -33.7381,0 -63.8998,-15.2695 -83.9816,-39.2658 18.4593,19.2393 44.4164,31.2144 73.1846,31.2144 56.0175,0 101.4466,-45.4084 101.4466,-101.426 0,-56.0176 -45.4291,-101.426 -101.4466,-101.426 -28.7471,0 -54.6864,11.9585 -73.1433,31.173 20.0819,-23.9687 50.2247,-39.2244 83.9403,-39.2244 z"
           style="fill:#a83da3;fill-opacity:1;stroke:none"
           inkscape:connector-curvature="0" />
      </g>
      <g
         id="g6283-5-6-9"
         transform="matrix(1.0476604,0,0,1.0476604,-1184.9779,-1446.015)">
        <path
           inkscape:connector-curvature="0"
           style="font-size:114.44565582px;font-style:normal;font-variant:normal;font-weight:normal;font-stretch:normal;text-align:start;line-height:125%;letter-spacing:0px;word-spacing:0px;writing-mode:lr-tb;text-anchor:start;fill:#a83da3;fill-opacity:1;stroke:none;font-family:NordiquePro-Semibold;-inkscape-font-specification:NordiquePro-Semibold"
           d="m 1141.7669,1781.8576 c -12.4916,0 -22.3377,2.6273 -29.5665,7.8449 3.8391,4.6155 6.6301,10.0986 8.4386,16.2834 0.2549,-0.2399 0.5102,-0.491 0.7814,-0.7189 4.5189,-3.7979 11.3049,-5.6882 20.3465,-5.6882 l 35.2548,0 0,-17.7212 -35.2548,0 z"
           id="path6285-5-1-2" />
        <path
           inkscape:connector-curvature="0"
           style="font-size:114.44565582px;font-style:normal;font-variant:normal;font-weight:normal;font-stretch:normal;text-align:start;line-height:125%;letter-spacing:0px;word-spacing:0px;writing-mode:lr-tb;text-anchor:start;fill:#a83da3;fill-opacity:1;stroke:none;font-family:NordiquePro-Semibold;-inkscape-font-specification:NordiquePro-Semibold"
           d="m 1123.2644,1839.3654 0,16.1897 0,3.4068 c 5.3476,1.6386 11.502,2.4377 18.5025,2.4377 l 35.2548,0 0,-17.7211 -35.2548,0 c -7.8901,0 -14.0565,-1.421 -18.5025,-4.3131 z"
           id="path6287-1-4-7" />
        <path
           inkscape:connector-curvature="0"
           style="font-size:114.44565582px;font-style:normal;font-variant:normal;font-weight:normal;font-stretch:normal;text-align:start;line-height:125%;letter-spacing:0px;word-spacing:0px;writing-mode:lr-tb;text-anchor:start;fill:#0096db;fill-opacity:1;stroke:none;font-family:NordiquePro-Semibold;-inkscape-font-specification:NordiquePro-Semibold"
           d="m 1075.5079,1781.8576 c -12.0526,-10e-5 -21.7106,3.7154 -28.9414,11.1265 -7.2308,7.411 -10.8452,18.4876 -10.8453,33.192 l 0,35.2235 17.7212,0 0,-35.2235 c 0,-9.0404 1.8909,-15.8282 5.6883,-20.3464 3.7975,-4.5186 9.2678,-6.7823 16.3772,-6.7823 7.1094,0 12.5484,2.2638 16.346,6.7823 3.466,4.1238 5.3545,10.1422 5.657,18.0336 0.4343,11.0182 4.1152,19.9112 11.064,26.6911 1.9682,1.9203 4.2061,3.5903 6.6884,5.0007 l 0,-29.379 c 0,-14.7044 -3.6144,-25.7809 -10.8452,-33.192 -7.2308,-7.411 -16.8577,-11.1265 -28.9102,-11.1265 z"
           id="path6289-7-2-9" />
      </g>
      <g
         id="g5181"
         transform="matrix(1.0645828,0,0,1.0645828,-3021.7224,-2742.2274)">
        <path
           inkscape:connector-curvature="0"
           id="path5183"
           style="font-size:114.44565582px;font-style:normal;font-variant:normal;font-weight:normal;font-stretch:normal;text-align:start;line-height:125%;letter-spacing:0px;word-spacing:0px;writing-mode:lr-tb;text-anchor:start;fill:#0096db;fill-opacity:1;stroke:none;font-family:NordiquePro-Semibold;-inkscape-font-specification:NordiquePro-Semibold"
           d="m 3022.8313,3008.2464 c -10e-5,-12.5387 -3.083,-21.968 -9.2489,-28.2875 -6.1659,-6.3195 -14.3876,-9.4793 -24.6651,-9.4794 -10.2776,1e-4 -18.4993,3.1599 -24.6652,9.4794 -6.1659,6.3195 -9.2488,15.7488 -9.2488,28.2875 l 0,40.5425 15.1058,0 0,-40.5425 c 0,-7.7089 1.6191,-13.4898 4.8573,-17.3428 3.2381,-3.8528 7.8884,-5.7793 13.9509,-5.7794 6.0623,10e-5 10.7126,1.9266 13.9509,5.7794 3.2381,3.853 4.8572,9.6339 4.8573,17.3428 l 0,40.5425 15.1058,0 z" />
        <path
           inkscape:connector-curvature="0"
           id="path5185"
           style="font-size:114.44565582px;font-style:normal;font-variant:normal;font-weight:normal;font-stretch:normal;text-align:start;line-height:125%;letter-spacing:0px;word-spacing:0px;writing-mode:lr-tb;text-anchor:start;fill:#0096db;fill-opacity:1;stroke:none;font-family:NordiquePro-Semibold;-inkscape-font-specification:NordiquePro-Semibold"
           d="m 3084.8023,2971.712 0,40.5425 c 0,7.709 -1.6191,13.4899 -4.8573,17.3428 -3.2382,3.853 -7.8885,5.7794 -13.9509,5.7794 -6.0624,0 -10.7127,-1.9264 -13.9509,-5.7794 -3.2382,-3.8529 -4.8573,-9.6338 -4.8572,-17.3428 l 0,-40.5425 -15.1059,0 0,40.5425 c 0,12.5389 3.083,21.9681 9.2489,28.2876 6.1659,6.3196 14.3876,9.4794 24.6651,9.4794 10.2775,0 18.4992,-3.1598 24.6652,-9.4794 6.1658,-6.3195 9.2488,-15.7487 9.2488,-28.2876 l 0,-40.5425 z" />
        <path
           inkscape:connector-curvature="0"
           id="path5187"
           style="font-size:114.44565582px;font-style:normal;font-variant:normal;font-weight:normal;font-stretch:normal;text-align:start;line-height:125%;letter-spacing:0px;word-spacing:0px;writing-mode:lr-tb;text-anchor:start;fill:#a83da3;fill-opacity:1;stroke:none;font-family:NordiquePro-Semibold;-inkscape-font-specification:NordiquePro-Semibold"
           d="m 3148.1564,3050.0215 c -7.1914,0 -13.845,-1.7728 -19.9607,-5.3184 -6.1158,-3.5455 -10.9464,-8.3753 -14.4919,-14.4895 -3.5456,-6.1141 -5.3184,-12.7685 -5.3183,-19.9631 -10e-5,-7.1946 1.7727,-13.8489 5.3183,-19.9632 3.5455,-6.1141 8.3761,-10.9438 14.4919,-14.4895 6.1157,-3.5454 12.7693,-5.3182 19.9607,-5.3183 8.3268,1e-4 15.8295,2.364 22.5082,7.0919 6.6786,4.728 11.4058,10.8428 14.1814,18.3448 l -16.1878,0 c -2.2582,-3.2899 -5.1349,-5.9111 -8.6302,-7.8635 -3.4954,-1.9522 -7.4009,-2.9284 -11.7163,-2.9285 -4.6229,10e-5 -8.8357,1.1049 -12.6384,3.3143 -3.8027,2.2096 -6.7838,5.2408 -8.943,9.0936 -2.1594,3.853 -3.239,8.0925 -3.239,12.7184 0,4.626 1.1047,8.8654 3.3142,12.7183 2.2095,3.853 5.1905,6.8842 8.9431,9.0936 3.7525,2.2096 7.9402,3.3143 12.5631,3.3143 4.2151,0 8.0437,-0.9244 11.4858,-2.7732 3.442,-1.8489 6.2936,-4.4182 8.5549,-7.7082 l 16.4936,0 c -2.7756,7.502 -7.5028,13.5651 -14.1814,18.1895 -6.6787,4.6244 -14.1814,6.9367 -22.5082,6.9367 z" />
        <path
           inkscape:connector-curvature="0"
           id="path5189"
           style="font-size:114.44565582px;font-style:normal;font-variant:normal;font-weight:normal;font-stretch:normal;text-align:start;line-height:125%;letter-spacing:0px;word-spacing:0px;writing-mode:lr-tb;text-anchor:start;fill:#a83da3;fill-opacity:1;stroke:none;font-family:NordiquePro-Semibold;-inkscape-font-specification:NordiquePro-Semibold"
           d="m 3232.4592,3050.0215 c -7.1914,0 -13.8191,-1.7728 -19.8831,-5.3184 -6.064,-3.5455 -10.8946,-8.3753 -14.4919,-14.4895 -3.5973,-6.1141 -5.3959,-12.7685 -5.3959,-19.9631 0,-7.1946 1.7986,-13.8489 5.3959,-19.9632 3.5973,-6.1141 8.4279,-10.9438 14.4919,-14.4895 6.064,-3.5454 12.6917,-5.3182 19.8831,-5.3183 7.1946,1e-4 13.8239,1.7729 19.8879,5.3183 6.0639,3.5457 10.8687,8.3754 14.4143,14.4895 3.5455,6.1143 5.3182,12.7686 5.3183,19.9632 l 0,38.5384 -15.1105,0 0,-12.1796 c -1.8474,3.8042 -5.0581,6.9906 -9.6323,9.5592 -4.5743,2.5687 -9.5335,3.853 -14.8777,3.853 z m 0.1553,-14.6448 c 4.626,0 8.7886,-1.1047 12.4878,-3.3143 3.6992,-2.2094 6.6277,-5.2406 8.7855,-9.0936 2.1577,-3.8529 3.2366,-8.0923 3.2366,-12.7183 0,-4.6259 -1.053,-8.8654 -3.159,-12.7184 -2.1061,-3.8528 -5.0345,-6.884 -8.7854,-9.0936 -3.7511,-2.2094 -7.9395,-3.3142 -12.5655,-3.3143 -4.6229,10e-5 -8.8357,1.1049 -12.6384,3.3143 -3.8027,2.2096 -6.7837,5.2408 -8.943,9.0936 -2.1594,3.853 -3.239,8.0925 -3.239,12.7184 0,4.626 1.1047,8.8654 3.3142,12.7183 2.2095,3.853 5.1905,6.8842 8.9431,9.0936 3.7525,2.2096 7.9402,3.3143 12.5631,3.3143 z" />
        <path
           inkscape:connector-curvature="0"
           id="path5191"
           style="font-size:114.44565582px;font-style:normal;font-variant:normal;font-weight:normal;font-stretch:normal;text-align:start;line-height:125%;letter-spacing:0px;word-spacing:0px;writing-mode:lr-tb;text-anchor:start;fill:#a83da3;fill-opacity:1;stroke:none;font-family:NordiquePro-Semibold;-inkscape-font-specification:NordiquePro-Semibold"
           d="m 3366.624,2970.4795 c 10.0704,1e-4 18.1628,3.1857 24.277,9.557 6.1141,6.3713 9.1711,15.7747 9.1713,28.2099 l 0,40.5425 -15.1059,0 0,-40.5425 c -10e-5,-7.7089 -1.5674,-13.4898 -4.702,-17.3428 -3.1348,-3.8528 -7.6816,-5.7793 -13.6404,-5.7794 -5.8586,10e-5 -10.3811,1.9266 -13.5675,5.7794 -3.1865,3.853 -4.7797,9.6339 -4.7797,17.3428 l 0,40.5425 -15.1058,0 0,-40.5425 c 0,-7.7089 -1.5674,-13.4898 -4.702,-17.3428 -3.1348,-3.8528 -7.6816,-5.7793 -13.6404,-5.7794 -5.8586,10e-5 -10.3811,1.9266 -13.5675,5.7794 -3.1865,3.853 -4.7797,9.6339 -4.7797,17.3428 l 0,40.5425 -15.1058,0 0,-40.5425 c 0,-12.4352 3.0571,-21.8386 9.1712,-28.2099 6.1141,-6.3713 14.208,-9.5569 24.2818,-9.557 5.755,1e-4 10.8929,1.2075 15.4139,3.6224 4.5209,2.415 8.0155,5.9856 10.4838,10.7118 2.465,-4.7262 5.9588,-8.2968 10.4814,-10.7118 4.5224,-2.4149 9.6612,-3.6223 15.4163,-3.6224 z" />
        <path
           inkscape:connector-curvature="0"
           id="path5193"
           style="font-size:114.44565582px;font-style:normal;font-variant:normal;font-weight:normal;font-stretch:normal;text-align:start;line-height:125%;letter-spacing:0px;word-spacing:0px;writing-mode:lr-tb;text-anchor:start;fill:#a83da3;fill-opacity:1;stroke:none;font-family:NordiquePro-Semibold;-inkscape-font-specification:NordiquePro-Semibold"
           d="m 3409.3369,3010.2503 c 0,-7.1946 1.7728,-13.8489 5.3184,-19.9632 3.5455,-6.1141 8.3503,-10.9439 14.4143,-14.4896 6.064,-3.5454 12.6917,-5.3182 19.8832,-5.3183 7.1946,10e-5 13.8239,1.7729 19.8879,5.3183 6.064,3.5457 10.8946,8.3755 14.492,14.4896 3.5972,6.1143 5.3959,12.7686 5.396,19.9632 -1e-4,7.1947 -1.7988,13.8491 -5.396,19.9632 -3.5974,6.1142 -8.428,10.9441 -14.492,14.4896 -6.064,3.5456 -12.6933,5.3184 -19.8879,5.3184 -5.0337,0 -9.6064,-0.9762 -13.7181,-2.9285 -4.1116,-1.9524 -7.6572,-4.6754 -10.6366,-8.1693 l 0,40.6979 -15.2612,0 0,-69.3713 z m 39.6159,25.1263 c 4.626,0 8.8145,-1.1047 12.5655,-3.3143 3.751,-2.2094 6.7053,-5.2406 8.8631,-9.0936 2.1577,-3.8529 3.2366,-8.0923 3.2367,-12.7184 -1e-4,-4.6259 -1.079,-8.8654 -3.2367,-12.7184 -2.1578,-3.8528 -5.1121,-6.884 -8.8631,-9.0936 -3.751,-2.2094 -7.9395,-3.3142 -12.5655,-3.3143 -4.6229,1e-4 -8.8098,1.1049 -12.5608,3.3143 -3.751,2.2096 -6.7054,5.2408 -8.8631,9.0936 -2.1578,3.853 -3.2366,8.0925 -3.2366,12.7184 0,4.6261 1.0788,8.8655 3.2366,12.7184 2.1577,3.853 5.138,6.8842 8.9408,9.0936 3.8027,2.2096 7.9637,3.3143 12.4831,3.3143 z" />
      </g>
    </g>
  </g>
</svg>
